<?xml version="1.0" standalone="no"?>
<!DOCTYPE svg PUBLIC "-//W3C//DTD SVG 20010904//EN"
 "http://www.w3.org/TR/2001/REC-SVG-20010904/DTD/svg10.dtd">
<svg version="1.0" xmlns="http://www.w3.org/2000/svg"
 width="103.000000pt" height="103.000000pt" viewBox="0 0 103.000000 103.000000"
 preserveAspectRatio="xMidYMid meet">
<metadata>
Created by potrace 1.14, written by Peter Selinger 2001-2017
</metadata>
<g transform="translate(0.000000,103.000000) scale(0.100000,-0.100000)"
fill="#000000" stroke="none">
<path d="M430 916 c-250 -43 -399 -276 -335 -521 61 -230 294 -355 548 -294
189 45 320 222 312 420 -5 120 -49 214 -133 290 -106 96 -239 131 -392 105z
m165 -167 c57 -14 126 -75 156 -135 58 -121 2 -280 -119 -340 -50 -25 -183
-26 -228 -2 -44 24 -91 73 -116 122 -31 57 -30 164 1 224 59 115 175 164 306
131z"/>
<path d="M455 656 c-81 -36 -117 -132 -79 -213 56 -116 223 -118 282 -3 67
133 -68 276 -203 216z"/>
</g>
</svg>
